# xmcd
#
# Track frame offsets: 
#        150
#        21215
#        42875
#        65517
#        88172
#        108647
#        143107
#        162767
#        186365
#        209332
#        234840
#        253820
#
# Disc length: 3796 seconds
#
# Revision: 0
# Processed by: cddbd v1.5.2PL0 Copyright (c) Steve Scherf et al.
# Submitted via: ExactAudioCopy v1.0b3
#
DISCID=a70ed20c
DTITLE=Thanh Thuy - Tinh Ca Ben Nhau
DYEAR=1989
DGENRE=
TTITLE0=Gap nhau
TTITLE1=Mot ngay se den
TTITLE2=Tinh dau dang do
TTITLE3=Thuong tinh ca, Gio chieu
TTITLE4=Don coi
TTITLE5=Mua thu la vang
TTITLE6=Chieu hanh quan
TTITLE7=Noi long, Goi giac mo xua
TTITLE8=Xin nho tim nhau
TTITLE9=Que Me, Den khuya
TTITLE10=Vinh biet
TTITLE11=Neu ta dung quen nhau
EXTD=
EXTT0=
EXTT1=
EXTT2=
EXTT3=
EXTT4=
EXTT5=
EXTT6=
EXTT7=
EXTT8=
EXTT9=
EXTT10=
EXTT11=
PLAYORDER=
